<?xml version="1.0" encoding="UTF-8"?>
<svg width="20px" height="20px" viewBox="0 0 20 20" version="1.1" xmlns="http://www.w3.org/2000/svg" xmlns:xlink="http://www.w3.org/1999/xlink">
    <title>checked</title>
    <g id="Page-1" stroke="none" stroke-width="1" fill="none" fill-rule="evenodd">
        <g id="checked" fill-rule="nonzero">
            <path d="M10.0049285,20 C15.4953179,20 20,15.4930966 20,10 C20,4.49704142 15.4953179,0 9.99507146,0 C4.50468211,0 0,4.49704142 0,10 C0,15.4930966 4.50468211,20 10.0049285,20 Z" fill="#21B4D0"></path>
            <path d="M9.04440154,16 C8.59073359,16 8.23359073,15.774359 7.95366795,15.425641 L5.33783784,12.1641026 C5.0965251,11.8769231 5,11.6102564 5,11.2923077 C5,10.625641 5.53088803,10.0923077 6.14864865,10.0923077 C6.50579151,10.0923077 6.78571429,10.2564103 7.03667954,10.5538462 L9.02509653,13.0564103 L12.8185328,6.68717949 C13.0984556,6.23589744 13.4169884,6 13.8320463,6 C14.4401544,6 15,6.48205128 15,7.14871795 C15,7.40512821 14.9034749,7.69230769 14.7393822,7.95897436 L10.1254826,15.3641026 C9.86486486,15.7538462 9.46911197,16 9.04440154,16 Z" id="Path" fill="#FFFFFF"></path>
        </g>
    </g>
</svg>