<?xml version="1.0" standalone="no"?>
<!DOCTYPE svg PUBLIC "-//W3C//DTD SVG 20010904//EN"
 "http://www.w3.org/TR/2001/REC-SVG-20010904/DTD/svg10.dtd">
<svg version="1.0" xmlns="http://www.w3.org/2000/svg"
 width="3235.000000pt" height="1026.000000pt" viewBox="0 0 3235.000000 1026.000000"
 preserveAspectRatio="xMidYMid meet">

<g transform="translate(0.000000,1026.000000) scale(0.100000,-0.100000)"
fill="#000000" stroke="none">
<path d="M11339 9776 c-93 -33 -163 -104 -218 -219 -119 -251 -117 -749 5
-1191 90 -327 240 -626 456 -913 l86 -115 -19 -65 c-83 -293 -83 -682 1 -1007
92 -358 290 -709 547 -971 37 -39 113 -109 168 -156 55 -48 148 -136 206 -195
l106 -109 6 -175 c4 -116 13 -209 26 -275 79 -387 299 -773 586 -1028 124
-110 184 -151 455 -313 129 -77 236 -147 238 -155 2 -13 -512 -897 -1036
-1781 -163 -275 -182 -311 -182 -352 0 -55 34 -101 88 -116 24 -8 147 -10 357
-8 315 3 321 3 360 26 22 13 46 34 55 45 8 12 173 294 366 627 193 332 358
608 366 614 10 6 70 -3 184 -27 979 -209 1949 -217 2916 -22 92 19 184 38 203
44 20 5 42 8 49 5 6 -2 175 -281 375 -619 200 -338 372 -623 383 -635 49 -53
61 -55 383 -58 165 -2 319 0 343 3 62 9 103 48 109 106 3 28 0 56 -7 70 -7 13
-284 484 -617 1045 -381 645 -601 1027 -597 1037 3 9 92 66 197 128 241 141
368 227 479 324 234 203 437 509 538 812 62 188 81 293 87 498 l6 180 111 114
c61 62 149 145 196 184 452 377 730 909 780 1492 18 198 -3 439 -54 628 l-23
88 60 77 c357 461 548 971 573 1534 15 331 -45 593 -166 730 -54 62 -146 108
-214 108 -50 -1 -52 -1 -86 -53 -139 -206 -442 -545 -715 -800 -532 -497
-1138 -930 -2145 -1532 -383 -229 -564 -361 -752 -549 -491 -491 -745 -1068
-724 -1641 9 -263 51 -488 141 -760 90 -276 95 -284 746 -1471 82 -150 149
-276 149 -282 0 -22 -34 -33 -178 -56 -644 -106 -1299 -111 -1969 -15 -267 38
-307 48 -311 74 -2 11 143 287 339 645 188 344 363 668 389 720 224 449 339
1025 286 1426 -69 521 -348 1024 -796 1438 -150 138 -351 280 -674 473 -1120
672 -1754 1138 -2306 1692 -204 205 -351 373 -487 558 l-98 131 -45 1 c-25 0
-61 -6 -81 -13z"/>
<path d="M9490 5954 c-19 -2 -87 -9 -150 -15 -270 -25 -611 -98 -816 -174
-580 -215 -919 -578 -1000 -1073 -21 -126 -14 -359 15 -482 105 -459 410 -768
926 -939 259 -86 488 -120 1010 -151 595 -35 923 -70 1200 -126 614 -124 872
-360 853 -778 -15 -330 -206 -539 -619 -677 -270 -90 -454 -114 -884 -114
-446 1 -747 34 -1120 125 -354 85 -543 161 -943 375 -77 41 -113 55 -144 55
-48 0 -116 -31 -139 -63 -9 -12 -68 -121 -132 -242 -102 -192 -117 -227 -117
-268 0 -90 27 -119 205 -222 508 -295 1228 -491 2008 -546 228 -16 779 -7 947
15 987 130 1609 582 1761 1279 84 382 13 793 -188 1096 -186 279 -504 500
-920 639 -399 133 -792 190 -1688 242 -192 11 -406 27 -475 36 -274 35 -486
113 -594 220 -71 69 -102 134 -117 241 -56 397 285 648 1001 738 361 45 709
26 1089 -60 85 -19 172 -35 194 -35 49 0 112 34 137 75 25 40 130 474 130 537
0 106 -46 145 -220 186 -323 77 -533 102 -890 107 -157 2 -301 1 -320 -1z"/>
<path d="M28910 5954 c-518 -47 -869 -132 -1185 -289 -261 -130 -448 -286
-580 -485 -107 -160 -168 -319 -196 -511 -15 -103 -7 -348 15 -449 114 -524
509 -868 1166 -1014 175 -39 399 -64 780 -86 601 -36 892 -66 1185 -125 505
-101 754 -264 841 -551 25 -82 25 -292 0 -383 -77 -281 -333 -469 -781 -574
-223 -53 -322 -62 -690 -62 -373 0 -524 12 -841 65 -449 75 -784 190 -1164
399 -181 99 -228 110 -300 70 -48 -27 -46 -24 -186 -284 -92 -172 -108 -208
-112 -257 -3 -47 0 -64 18 -95 25 -43 32 -48 155 -122 200 -120 516 -255 791
-340 323 -99 652 -163 1064 -208 235 -26 934 -26 1125 0 560 76 985 243 1308
515 235 198 394 470 464 793 26 120 26 478 0 597 -145 659 -673 1063 -1617
1236 -283 52 -578 81 -1185 116 -544 32 -733 63 -921 155 -188 91 -274 224
-274 421 0 307 259 517 762 619 230 46 366 59 628 59 282 0 404 -13 685 -75
196 -42 242 -46 283 -25 71 37 81 59 144 318 66 268 70 320 29 377 -12 17 -36
38 -53 47 -65 33 -386 100 -628 129 -129 16 -620 29 -730 19z"/>
<path d="M3590 5899 c-76 -13 -166 -57 -222 -110 -40 -36 -266 -416 -1321
-2214 -700 -1193 -1354 -2305 -1452 -2470 -190 -321 -203 -351 -171 -413 32
-62 39 -63 425 -60 l349 3 38 31 c29 23 120 172 400 654 200 344 367 626 372
628 5 1 69 -11 143 -27 1017 -227 2068 -228 3081 -4 89 19 121 23 131 14 8 -6
178 -288 378 -627 311 -527 370 -620 403 -643 l39 -26 336 -3 c239 -2 343 1
363 9 42 17 68 60 68 111 0 41 -30 96 -328 599 -180 305 -838 1418 -1462 2474
-792 1338 -1148 1932 -1178 1963 -52 53 -145 98 -232 111 -74 12 -84 12 -160
0z m123 -1166 c110 -175 1197 -2025 1197 -2037 0 -8 -8 -20 -18 -25 -25 -13
-315 -57 -542 -81 -252 -28 -790 -38 -1047 -21 -325 22 -809 88 -841 114 -7 5
-12 18 -10 27 2 9 272 476 602 1038 454 776 603 1022 617 1022 11 0 29 -16 42
-37z"/>
<path d="M23091 5899 c-76 -13 -172 -62 -223 -113 -31 -31 -370 -600 -1222
-2052 -649 -1105 -1304 -2218 -1455 -2474 -240 -406 -275 -470 -276 -507 0
-46 26 -90 66 -111 18 -9 108 -11 370 -10 l345 3 40 26 c34 23 87 110 394 640
195 337 362 621 370 632 15 18 20 18 175 -17 466 -103 891 -153 1395 -163 540
-11 1035 34 1545 139 110 23 213 42 229 42 27 1 44 -25 392 -613 200 -338 373
-625 386 -639 46 -50 62 -52 422 -52 l335 0 35 31 c40 35 54 82 38 128 -18 51
-2922 4954 -2956 4989 -92 97 -259 147 -405 121z m717 -2163 c383 -647 610
-1040 606 -1050 -8 -20 -11 -21 -204 -50 -413 -63 -681 -80 -1120 -73 -395 7
-599 25 -988 88 -104 17 -135 26 -143 40 -8 15 102 208 572 1011 319 546 592
1010 605 1031 14 20 32 37 43 37 13 0 173 -263 629 -1034z"/>
</g>
</svg>
